<mxfile host="app.diagrams.net" modified="2023-08-28T11:48:03.140Z" agent="Mozilla/5.0 (X11; Linux x86_64) AppleWebKit/537.36 (KHTML, like Gecko) Chrome/116.0.0.0 Safari/537.36" version="21.6.8" etag="YtL-bOW7Vx9p_poSDRAV" type="github">
  <diagram name="Page-1" id="NXz9A3DzNtB_A-Fn1lTI">
    <mxGraphModel>
      <root>
        <mxCell id="0" />
        <mxCell id="1" parent="0" />
      </root>
    </mxGraphModel>
  </diagram>
</mxfile>
